# xmcd CD database file
#
# Track frame offsets:
#	150
#	19581
#	39827
#	60741
#	88774
#	116197
#	137620
#	162118
#	196862
#	249846
#	296517
#	325720
#
# Disc length: 4682 seconds
#
# Revision: 2
# Processed by: cddbd v1.5.1PL0 Copyright (c) Steve Scherf et al.
# Submitted via: CDex 1.51
#
DISCID=9812480c
DTITLE=Various Artist - Relaxing Moods III Disc 3
DYEAR=2005
DGENRE=New Age
TTITLE0=Pilates - The Journey
TTITLE1=Pilates - Gentle Souls
TTITLE2=Pilates - Across The Water
TTITLE3=Pilates - Hear The Silence
TTITLE4=Pilates - Sari Karma
TTITLE5=Pilates - Samourai
TTITLE6=Pilates - Hear Comes The Sun
TTITLE7=Pilates - Unity
TTITLE8=Pilates - Healing From Within
TTITLE9=Pilates - Pure Peace
TTITLE10=Pilates - Urania
TTITLE11=Pilates - World Colours
EXTD=YEAR: 2005
EXTT0=
EXTT1=
EXTT2=
EXTT3=
EXTT4=
EXTT5=
EXTT6=
EXTT7=
EXTT8=
EXTT9=
EXTT10=
EXTT11=
PLAYORDER=
